<?xml version="1.0" encoding="utf-8"?>
<!-- Generator: Adobe Illustrator 25.1.0, SVG Export Plug-In . SVG Version: 6.00 Build 0)  -->
<svg version="1.1" id="Layer_1" xmlns="http://www.w3.org/2000/svg" xmlns:xlink="http://www.w3.org/1999/xlink" x="0px" y="0px"
	 viewBox="0 0 370 100" style="enable-background:new 0 0 370 100;" xml:space="preserve">
<style type="text/css">
	.st0{fill:none;}
	.st1{fill:#1B2840;}
</style>
<rect class="st0" width="370" height="100"/>
<g>
	<path class="st1" d="M342.9,72.9c0.3-1.3,1.3-1.6,2.1-1.6c0.8,0,1.9,0.4,2.1,1.6H342.9z M341.2,73.6c0,1.7,1.1,3.3,3.9,3.3
		c2.4,0,3.3-1.4,3.6-2.1h-1.8c-0.3,0.5-0.8,0.9-1.9,0.9c-1.6,0-2.1-1.1-2.1-1.8h5.9v-0.2c0-1.8-1.1-3.6-3.9-3.6
		C342.8,70.2,341.2,71.5,341.2,73.6 M343.9,49.9H341l4.7,9.9l-0.6,1.2c-0.3,0.6-0.8,0.8-1.5,0.8c-0.6,0-1.1,0-1.3,0v2
		c0.5,0,1.2,0,1.6,0c2.2,0,2.8-0.3,3.6-2l5.5-11.9h-2.8l-3.2,7.2L343.9,49.9z M335.5,70.4h-1.3v1.2h1.3v5.1h1.6v-5.1h1.7v-1.2h-1.7
		v-0.5c0-0.6,0.1-0.7,0.9-0.7c0.3,0,0.7,0,0.8,0V68c-0.4,0-0.8,0-1.5,0c-1.7,0-1.9,0.9-1.9,1.6V70.4z M331.6,70.4H330v6.3h1.6V70.4z
		 M331.6,68.1H330v1.3h1.6V68.1z M326.5,68.1h-1.6v8.6h1.6V68.1z M315.7,54.9c0-1.7,1-3.4,3.5-3.4c2.5,0,3.5,1.7,3.5,3.4
		c0,1.7-0.9,3.4-3.5,3.4C316.6,58.3,315.7,56.6,315.7,54.9 M319.2,60.3c4.5,0,6.2-2.6,6.2-5.4c0-2.8-1.7-5.4-6.2-5.4
		c-4.5,0-6.2,2.6-6.2,5.4C312.9,57.7,314.7,60.3,319.2,60.3 M310.4,74.7h-1.8c0.1,1.9,2.2,2.2,3.5,2.2c1.9,0,3.5-0.5,3.5-2.1
		c0-1.5-1.4-1.7-3.4-2c-1.6-0.2-1.7-0.3-1.7-0.8c0-0.3,0.5-0.7,1.4-0.7c0.6,0,1.7,0.1,1.8,1h1.7c-0.1-2-2.4-2.2-3.4-2.2
		c-1.1,0-3.1,0.2-3.1,2c0,1.4,1,1.7,3,1.9c1.8,0.2,2,0.4,2,0.9c0,0.6-0.9,0.8-1.7,0.8C311.5,75.8,310.4,75.7,310.4,74.7 M305.5,70.4
		h-1.6v6.3h1.6V70.4z M305.5,68.1h-1.6v1.3h1.6V68.1z M295.9,54.9c0-1.7,0.9-3.4,3.5-3.4c2.5,0,3.5,1.7,3.5,3.4
		c0,1.7-0.9,3.4-3.5,3.4C296.9,58.3,295.9,56.6,295.9,54.9 M299.4,60.3c4.5,0,6.2-2.6,6.2-5.4c0-2.8-1.7-5.4-6.2-5.4
		c-4.5,0-6.2,2.6-6.2,5.4C293.2,57.7,294.9,60.3,299.4,60.3 M291.8,70.4h-1.6v6.3h1.6v-3c0-1.5,1.2-1.9,2-1.9c0.3,0,0.6,0,1,0.2
		v-1.6c-0.2,0-0.4-0.1-0.7-0.1c-1.3,0-1.9,0.7-2.4,1.4h0V70.4z M281.1,72.9c0.3-1.3,1.3-1.6,2.1-1.6c0.8,0,1.9,0.4,2.1,1.6H281.1z
		 M279.3,73.6c0,1.7,1.1,3.3,3.9,3.3c2.4,0,3.3-1.4,3.6-2.1h-1.8c-0.3,0.5-0.8,0.9-1.9,0.9c-1.6,0-2.1-1.1-2.1-1.8h5.9v-0.2
		c0-1.8-1.1-3.6-3.9-3.6C280.9,70.2,279.3,71.5,279.3,73.6 M273.2,70.4h-1.3v1.2h1.3v3.3c0,1.2,0.2,1.9,2.1,1.9c0.5,0,0.8,0,1.3-0.1
		v-1.2c-0.4,0-0.8,0-1.2,0c-0.6,0-0.6-0.4-0.6-1.1v-2.9h1.7v-1.2h-1.7v-1.9h-1.6V70.4z M269,54.5c0-2.1,1.8-2.9,3.1-2.9
		c2.2,0,2.5,1.2,2.5,2.3v6h2.6v-6.8c0-2.7-2.1-3.5-4.3-3.5c-1.8,0-3.1,0.7-4,1.8h0v-5.2h-2.6v13.8h2.6V54.5z M262.3,73.5
		c0,1.7,1.1,3.4,3.9,3.4c0.4,0,3.1,0,3.5-2.6h-1.7c-0.3,0.9-0.7,1.4-2,1.4c-1.4,0-2-1-2-2.1c0-1.1,0.7-2.1,2.2-2.1
		c0.9,0,1.6,0.5,1.7,1.2h1.7c-0.3-2.1-2.5-2.4-3.5-2.4C263.7,70.2,262.3,71.5,262.3,73.5 M253.6,74.9c0-0.5,0.3-0.8,1.5-0.9
		c1.2-0.1,1.7-0.2,2.1-0.4v0.6c0,1.4-1.5,1.7-2.4,1.7C254.4,75.9,253.6,75.7,253.6,74.9 M251.9,75c0,1.2,0.9,2,2.6,2
		c1.8,0,2.6-0.6,3-0.9c0,0.2,0.2,0.8,1.2,0.8c0.6,0,0.8-0.1,1.2-0.1v-1.1c-0.1,0-0.4,0-0.5,0c-0.1,0-0.4,0-0.4-0.4v-3
		c0-0.8-0.1-2.1-3.4-2.1c-1.9,0-3.1,0.5-3.3,2.2h1.6c0.1-0.7,0.6-1,1.7-1c0.9,0,1.8,0.2,1.8,0.9c0,0.5-0.3,0.6-2.6,0.8
		C253.7,73.1,251.9,73.2,251.9,75 M246.3,70.4h-1.6v6.3h1.6v-3c0-1.5,1.2-1.9,2-1.9c0.3,0,0.6,0,1,0.2v-1.6c-0.2,0-0.4-0.1-0.7-0.1
		c-1.3,0-1.9,0.7-2.4,1.4h0V70.4z M241,53.9c0.4-2.1,2.1-2.6,3.4-2.6c1.3,0,3.1,0.6,3.4,2.6H241z M244.5,60.3c3.8,0,5.2-2.2,5.8-3.3
		h-2.9c-0.5,0.8-1.3,1.4-3,1.4c-2.6,0-3.4-1.7-3.4-2.9h9.5v-0.4c0-2.9-1.7-5.7-6.2-5.7c-3.6,0-6.1,2.1-6.1,5.5
		C238.2,57.7,239.9,60.3,244.5,60.3 M235.7,74.9c0-0.5,0.3-0.8,1.5-0.9c1.2-0.1,1.7-0.2,2.1-0.4v0.6c0,1.4-1.5,1.7-2.4,1.7
		C236.5,75.9,235.7,75.7,235.7,74.9 M234,75c0,1.2,0.9,2,2.6,2c1.8,0,2.6-0.6,3-0.9c0,0.2,0.2,0.8,1.2,0.8c0.6,0,0.8-0.1,1.2-0.1
		v-1.1c-0.1,0-0.4,0-0.5,0c-0.1,0-0.4,0-0.4-0.4v-3c0-0.8-0.1-2.1-3.4-2.1c-1.9,0-3.1,0.5-3.3,2.2h1.6c0.1-0.7,0.6-1,1.7-1
		c1,0,1.8,0.2,1.8,0.9c0,0.5-0.2,0.6-2.6,0.8C235.8,73.1,234,73.2,234,75 M229,51.8h2.1v5.4c0,1.9,0.2,3,3.4,3c0.8,0,1.3-0.1,2-0.2
		v-1.9c-0.6,0-1.2,0-1.9,0c-0.9,0-0.9-0.6-0.9-1.8v-4.6h2.7v-1.9h-2.7v-3.1h-2.6v3.1H229V51.8z M225.8,68.1h-1.6v8.6h1.6v-3.4
		c0-1.3,1.1-1.8,2-1.8c1.4,0,1.6,0.8,1.6,1.4v3.8h1.6v-4.3c0-1.7-1.3-2.2-2.7-2.2c-1.1,0-1.9,0.4-2.5,1.1h0V68.1z M218.8,49.9v-0.8
		c0-0.9,0.2-1.2,1.4-1.2c0.5,0,1.1,0,1.3,0.1v-1.9c-0.6,0-1.2-0.1-2.4-0.1c-2.7,0-3,1.5-3,2.6v1.3h-2.1v1.9h2.1v8.2h2.6v-8.2h2.8
		v-1.9H218.8z M182,53.9c0.4-2.1,2.1-2.6,3.4-2.6c1.3,0,3.1,0.6,3.4,2.6H182z M179.3,55c0,2.7,1.7,5.3,6.2,5.3
		c3.8,0,5.2-2.2,5.8-3.3h-2.8c-0.5,0.8-1.3,1.4-3,1.4c-2.6,0-3.4-1.7-3.4-2.9h9.5v-0.4c0-2.9-1.7-5.7-6.2-5.7
		C181.8,49.5,179.3,51.6,179.3,55 M174.2,54.6c0,1.9-1.4,3.2-3.4,3.2c-2.8,0-3.6-1.6-3.6-3.1c0-1.8,1.5-3.1,3.4-3.1
		C171.9,51.6,174.2,52.2,174.2,54.6 M174.2,58.2v1.2c0,1.3-0.4,2.9-3.4,2.9c-1.6,0-2.8-0.2-3.1-1.5h-2.7c0.2,2.6,2.8,3.3,5.9,3.3
		c4.4,0,6-2.1,6-4.5v-9.8h-2.6v1.5h0c-0.6-1.1-2.1-1.7-4.1-1.7c-3.9,0-5.6,2.5-5.6,5.1c0,3.7,2.9,5.1,5.6,5.1
		C171.6,59.8,172.9,59.4,174.2,58.2L174.2,58.2z M147.9,46.1h-2.6v13.8h2.6V46.1z M142.4,46.1h-2.6v13.8h2.6V46.1z M127.7,54.9
		c0-1.7,1-3.4,3.5-3.4c2.5,0,3.5,1.7,3.5,3.4c0,1.7-0.9,3.4-3.5,3.4C128.7,58.3,127.7,56.6,127.7,54.9 M125,54.9
		c0,2.8,1.7,5.4,6.2,5.4c4.5,0,6.2-2.6,6.2-5.4c0-2.8-1.7-5.4-6.2-5.4C126.7,49.5,125,52.1,125,54.9 M71.7,69.3
		c0-0.2,0.2-0.4,0.4-0.4c0.2,0,0.4,0.2,0.4,0.4H71.7z M71.4,69.5c0,0.5,0.3,0.8,0.8,0.8c0.3,0,0.6-0.2,0.7-0.5h-0.3
		c-0.1,0.2-0.2,0.3-0.4,0.3c-0.3,0-0.4-0.2-0.4-0.5h1.1c0.1-0.5-0.2-0.9-0.7-0.9C71.7,68.7,71.4,69,71.4,69.5 M70.3,68.7h-0.3V69
		h0.3v1.3h0.3V69H71v-0.3h-0.3v-0.2c0-0.1,0.1-0.2,0.2-0.2c0.1,0,0.1,0,0.2,0v-0.3c-0.1,0-0.1,0-0.2,0c-0.2,0-0.4,0.1-0.4,0.5V68.7z
		 M68.9,75.4L68.9,75.4L68.9,75.4L68.9,75.4z M68.9,75.4L68.9,75.4L68.9,75.4L68.9,75.4z M68.9,75.4L68.9,75.4L68.9,75.4L68.9,75.4z
		 M67.7,75.1l0.7,0.5l-0.3,0.9l0,0l0.7-0.5l0.7,0.5l0,0l-0.3-0.9v0l0.7-0.5l-0.9,0l-0.3-0.9l0,0L68.6,75L67.7,75.1z M69.6,68.7h-0.3
		v1.5h0.3V68.7z M69.2,68.4h0.3v-0.3h-0.3V68.4z M68.2,70.2h0.3v-2.1h-0.3V70.2z M65.1,69.7c0,0.4,0.3,0.5,0.7,0.5
		c0.3,0,0.7-0.1,0.7-0.5c0-0.3-0.2-0.4-0.5-0.5c-0.3-0.1-0.5-0.1-0.5-0.2c0-0.1,0.2-0.2,0.3-0.2c0.1,0,0.3,0,0.3,0.2h0.4
		c0-0.3-0.3-0.5-0.6-0.5c-0.3,0-0.6,0.1-0.6,0.4c0,0.3,0.2,0.4,0.5,0.5c0.2,0.1,0.5,0.1,0.5,0.3c0,0.2-0.2,0.2-0.3,0.2
		c-0.2,0-0.3-0.1-0.4-0.3H65.1z M64.3,74.6L64.3,74.6l0,1.5h-1L64.3,74.6z M64.3,73.9l-1.4,2v0.5h1.4v0.8h0.5v-0.8h0.4V76h-0.4v-2.1
		H64.3z M64.5,68.7h-0.3v1.5h0.3V68.7z M64.2,68.4h0.3v-0.3h-0.3V68.4z M62.5,69c0,0,0.1,0,0.1,0v-0.3c0,0-0.1,0-0.1,0
		c-0.2,0-0.4,0.2-0.5,0.3h0v-0.3h-0.3v1.5H62l0-0.7C62,69.2,62.2,69,62.5,69 M60.4,76.3c0-0.4,0.3-0.6,0.6-0.6
		c0.4,0,0.6,0.2,0.6,0.6c0,0.4-0.3,0.6-0.6,0.6C60.6,76.9,60.4,76.7,60.4,76.3 M61.5,74.8c0,0.3-0.2,0.5-0.5,0.5
		c-0.3,0-0.5-0.2-0.5-0.5c0-0.3,0.2-0.5,0.5-0.5C61.3,74.3,61.5,74.5,61.5,74.8 M59.8,76.3c0,0.7,0.5,1,1.2,1c0.7,0,1.2-0.4,1.2-1
		c0-0.4-0.2-0.7-0.6-0.8v0c0.3-0.1,0.5-0.4,0.5-0.7c0-0.6-0.4-0.9-1-0.9c-0.7,0-1,0.3-1,0.9c0,0.3,0.2,0.6,0.5,0.7v0
		C60.1,75.6,59.8,75.9,59.8,76.3 M60,69.3c0-0.2,0.2-0.4,0.4-0.4c0.2,0,0.4,0.2,0.4,0.4H60z M59.7,69.5c0,0.5,0.3,0.8,0.8,0.8
		c0.3,0,0.6-0.2,0.7-0.5h-0.3c-0.1,0.2-0.2,0.3-0.4,0.3c-0.3,0-0.4-0.2-0.4-0.5h1.1c0.1-0.5-0.2-0.9-0.7-0.9
		C59.9,68.7,59.7,69,59.7,69.5 M58.9,69.8V69h0.3v-0.3h-0.3v-0.5h-0.3v0.5h-0.3V69h0.3v0.9c0,0.3,0.1,0.4,0.4,0.4c0.1,0,0.1,0,0.2,0
		V70c0,0-0.1,0-0.1,0C58.9,70,58.9,69.9,58.9,69.8 M58.4,75c0,0.4-0.2,0.7-0.6,0.7c-0.4,0-0.6-0.3-0.6-0.7c0-0.4,0.2-0.7,0.6-0.7
		C58.2,74.3,58.4,74.6,58.4,75 M58.5,75.7L58.5,75.7c0,0.5-0.1,1.2-0.7,1.2c-0.3,0-0.5-0.2-0.5-0.5h-0.5c0,0.5,0.5,0.9,1,0.9
		c0.9,0,1.3-0.9,1.3-1.7c0-1-0.2-1.7-1.2-1.7c-0.7,0-1.1,0.5-1.1,1.1c0,0.7,0.4,1.1,1.1,1.1C58.1,76.1,58.3,76,58.5,75.7 M56.4,69.5
		c0,0.5,0.3,0.8,0.7,0.8c0.4,0,0.6-0.2,0.7-0.6h-0.3c0,0.2-0.2,0.4-0.4,0.4c-0.3,0-0.4-0.3-0.4-0.5c0-0.5,0.2-0.6,0.4-0.6
		c0.2,0,0.3,0.1,0.4,0.3h0.3c0-0.4-0.3-0.6-0.7-0.6C56.7,68.7,56.4,69,56.4,69.5 M55.1,70c-0.1,0-0.3,0-0.3-0.2
		c0-0.2,0.1-0.2,0.3-0.3c0.2,0,0.3,0,0.4-0.1v0.3C55.5,69.9,55.2,70,55.1,70 M55,70.3c0.2,0,0.4-0.1,0.5-0.2c0,0.1,0.1,0.2,0.3,0.2
		c0.1,0,0.2,0,0.2,0V70c0,0-0.1,0-0.1,0c-0.1,0-0.1,0-0.1-0.1v-0.8c0-0.3-0.3-0.4-0.6-0.4c-0.3,0-0.7,0.1-0.7,0.5h0.3
		c0-0.2,0.1-0.2,0.3-0.2c0.1,0,0.3,0,0.3,0.2c0,0.2-0.2,0.2-0.5,0.2c-0.3,0-0.6,0.1-0.6,0.5C54.4,70.1,54.7,70.3,55,70.3 M53.7,74.5
		v0.4h0.8v2.3h0.6v-3.3h-0.4C54.6,74.3,54.1,74.5,53.7,74.5 M53.5,68.7h-0.3v1.5h0.3v-0.7c0-0.3,0.2-0.5,0.4-0.5c0,0,0.1,0,0.1,0
		v-0.3c0,0-0.1,0-0.1,0c-0.2,0-0.4,0.2-0.5,0.3h0V68.7z M51.5,69.8c0-0.2,0.1-0.2,0.3-0.3c0.2,0,0.3,0,0.4-0.1v0.3
		c0,0.2-0.2,0.3-0.4,0.3C51.6,70,51.5,70,51.5,69.8 M51.6,70.3c0.2,0,0.4-0.1,0.5-0.2c0,0.1,0.1,0.2,0.3,0.2c0.1,0,0.2,0,0.2,0V70
		c0,0-0.1,0-0.1,0c-0.1,0-0.1,0-0.1-0.1v-0.8c0-0.3-0.3-0.4-0.6-0.5c-0.3,0-0.7,0.1-0.7,0.5h0.3c0-0.2,0.2-0.2,0.3-0.2
		c0.1,0,0.3,0,0.3,0.2c0,0.2-0.2,0.2-0.5,0.2c-0.3,0-0.6,0.1-0.6,0.5C51.1,70.1,51.4,70.3,51.6,70.3 M50.3,75.4L50.3,75.4L50.3,75.4
		L50.3,75.4L50.3,75.4L50.3,75.4z M50.3,75.4L50.3,75.4L50.3,75.4L50.3,75.4L50.3,75.4L50.3,75.4L50.3,75.4L50.3,75.4L50.3,75.4
		L50.3,75.4z M49.1,75.1l0.7,0.5l-0.3,0.9v0l0.7-0.5l0.7,0.5l0,0l-0.3-0.9v0l0.7-0.5l-0.9,0l-0.3-0.9v0L50.1,75h0L49.1,75.1z
		 M49.5,70.2v-0.9c0-0.2,0.1-0.4,0.4-0.4c0.2,0,0.3,0.1,0.3,0.3v1h0.3v-1.1c0-0.3-0.2-0.5-0.5-0.5c-0.2,0-0.4,0.1-0.5,0.2h0v-0.8
		h-0.3v2.1H49.5z M47.1,69.5c0,0.5,0.3,0.8,0.8,0.8c0.4,0,0.6-0.2,0.7-0.6h-0.3c0,0.2-0.2,0.4-0.4,0.4c-0.3,0-0.4-0.3-0.4-0.5
		c0-0.5,0.2-0.6,0.4-0.6c0.2,0,0.3,0.1,0.4,0.3h0.3c0-0.4-0.3-0.6-0.7-0.6C47.4,68.7,47.1,69,47.1,69.5 M38.9,66.4l-2-0.3l0.4,0.5
		l2.4,0.3l-1.4,1l0.3,0.4l2.7-2.1L41,65.9l-1,0.7l-0.8-0.1l0.6-2L39.6,64L38.9,66.4z M36.9,61.6l-1.9,1.1l0.2,0.4l1.9-1
		c0.5-0.3,1-0.2,1.3,0.3c0.3,0.5,0.2,1-0.4,1.3l-1.9,1l0.2,0.4l1.9-1c0.8-0.4,0.9-1.1,0.5-1.9C38.3,61.4,37.6,61.2,36.9,61.6
		 M36.4,56.9L33.2,58l0.2,0.6l3.1,0.1l-2.4,2l0.2,0.6l3.3-1.1l-0.1-0.4l-2.7,0.9l0,0l2.4-1.9l-0.1-0.4l-3.1-0.1l0,0l2.7-0.9
		L36.4,56.9z M34.7,55.5l-1.7-0.3l0,0l1.5-0.8L34.7,55.5z M35.8,53.1L32.6,55l0.1,0.5l3.6,0.8l-0.1-0.5l-1.1-0.2l-0.2-1.4l1-0.5
		L35.8,53.1z M32.7,51c0-0.4,0.2-0.6,0.6-0.6c0.5,0,0.6,0.4,0.6,0.8l0,1l-1.2,0L32.7,51z M32.3,50.9l0,1.6l3.4-0.1l0-0.5l-1.5,0
		l0-1.1c0-0.4,0.3-0.5,0.6-0.6c0.3-0.1,0.7,0,0.8-0.1l0-0.5c-0.2,0.2-0.6,0.2-0.9,0.2c-0.3,0-0.6,0.1-0.7,0.5h0
		c-0.1-0.4-0.5-0.6-0.9-0.6C32.6,49.9,32.3,50.3,32.3,50.9 M34.6,47l-0.2,1.2L33,47.4v0L34.6,47z M36.2,46.2l-3.6,0.9l-0.1,0.5
		l3.2,1.8l0.1-0.5l-1-0.5l0.2-1.4l1.1-0.2L36.2,46.2z M34.9,42.1c-0.8-0.1-1.3,0.4-1.5,1.1c-0.3,1,0.4,1.8,1.3,2.1
		c0.9,0.3,1.8-0.1,2.1-1.1c0.1-0.4,0.1-0.8-0.2-1.2l0.4,0l0.1-0.3l-1.7-0.5L35,43.7l0.4,0.1l0.3-1.1c0.6,0.1,1,0.7,0.8,1.4
		c-0.2,0.7-1,0.9-1.6,0.7c-0.7-0.2-1.3-0.7-1.1-1.5c0.1-0.5,0.5-0.8,1-0.8L34.9,42.1z M37.6,38.8l-2-1l-0.2,0.4l2,1
		c0.5,0.3,0.7,0.7,0.5,1.2c-0.3,0.5-0.7,0.7-1.3,0.5l-2-1l-0.2,0.4l2,1c0.8,0.4,1.4,0.1,1.8-0.7C38.5,39.9,38.3,39.2,37.6,38.8
		 M38.5,36.3l-0.5,0.8l-1-0.7l0.6-0.9c0.2-0.4,0.6-0.4,0.8-0.2C38.8,35.6,38.7,36,38.5,36.3 M39,35.9c0.1-0.4,0-0.8-0.4-1
		c-0.5-0.3-1-0.2-1.3,0.3l-0.9,1.3l2.8,1.9l0.3-0.4l-1.2-0.8l0.6-0.9c0.3-0.4,0.5-0.3,0.8-0.1c0.3,0.1,0.6,0.4,0.8,0.4l0.3-0.4
		c-0.3,0-0.6-0.2-0.9-0.4C39.6,35.7,39.3,35.6,39,35.9L39,35.9z M42.3,34.7c0.6-0.6,0.6-1.3,0-1.9l-1.6-1.5l-0.3,0.3l1.6,1.5
		c0.4,0.4,0.5,0.9,0.1,1.3c-0.4,0.4-0.9,0.5-1.3,0L39.1,33l-0.3,0.3l1.6,1.5C41,35.4,41.7,35.3,42.3,34.7 M72.5,43.1v-0.2
		c-5-0.4-7.3-2.2-11.7-0.9h-0.2v0.3h0.2C64.4,41,68.6,42.9,72.5,43.1 M72.5,44.6v-0.2c-5-0.4-7.3-2.2-11.7-0.9h-0.2v0.3h0.2
		C64.4,42.5,68.6,44.4,72.5,44.6 M72.5,46v-0.2c-5-0.4-7.3-2.2-11.7-0.9h-0.2v0.3h0.2C64.4,43.9,68.6,45.8,72.5,46 M72.5,47.5v-0.2
		c-5-0.4-7.3-2.2-11.7-0.9h-0.2v0.3h0.2C64.4,45.3,68.6,47.2,72.5,47.5 M72.5,49v-0.2c-5-0.4-7.3-2.2-11.7-0.9h-0.2v0.3h0.2
		C64.4,46.8,68.6,48.7,72.5,49 M72.5,50.4v-0.2c-5-0.4-7.3-2.2-11.7-0.9h-0.2v0.3h0.2C64.4,48.3,68.6,50.2,72.5,50.4 M72.5,51.9
		v-0.2c-5-0.4-7.3-2.2-11.7-0.9h-0.2v0.3h0.2C64.4,49.8,68.6,51.6,72.5,51.9 M72.5,53.4v-0.2c-5-0.4-7.3-2.2-11.7-0.9h-0.2v0.3h0.2
		C64.4,51.2,68.6,53.1,72.5,53.4 M72.5,54.8v-0.2c-5-0.4-7.3-2.2-11.7-0.9h-0.2V54h0.2C64.4,52.7,68.6,54.6,72.5,54.8 M72.5,56.3
		v-0.2c-5-0.4-7.3-2.2-11.7-0.9h-0.2v0.3h0.2C64.4,54.2,68.6,56.1,72.5,56.3 M72.5,57.8v-0.2c-5-0.4-7.3-2.2-11.7-0.9h-0.2V57h0.2
		C64.4,55.6,68.6,57.5,72.5,57.8 M72.5,59.2V59c-5-0.4-7.3-2.2-11.7-0.9h-0.2v0.3h0.2C64.4,57.1,68.6,59,72.5,59.2 M72.5,60.7v-0.2
		c-5-0.4-7.3-2.2-11.7-0.9h-0.2v0.3h0.2C64.4,58.6,68.6,60.5,72.5,60.7 M60.8,61.2h-0.2v0.3h0.2c3.5-1.3,7.7,0.5,11.6,0.8v-0.2
		C67.5,61.7,65.1,59.9,60.8,61.2 M46.2,62v0.2c3.9-0.3,8.1-2.1,11.6-0.8H58v-0.3h-0.2C53.6,59.8,51.2,61.6,46.2,62 M46.2,60.5v0.2
		c3.9-0.3,8.1-2.1,11.6-0.8h0.2v-0.3h-0.2C53.6,58.3,51.2,60.1,46.2,60.5 M46.2,59v0.2c3.9-0.2,8.1-2.1,11.6-0.8h0.2v-0.3h-0.2
		C53.6,56.9,51.2,58.7,46.2,59 M46.2,57.6v0.2c3.9-0.2,8.1-2.1,11.6-0.8h0.2v-0.3h-0.2C53.6,55.4,51.2,57.2,46.2,57.6 M46.2,56.1
		v0.2c3.9-0.2,8.1-2.1,11.6-0.8h0.2v-0.3h-0.2C53.6,53.9,51.2,55.7,46.2,56.1 M46.2,54.6v0.2c3.9-0.2,8.1-2.1,11.6-0.8h0.2v-0.3
		h-0.2C53.6,52.5,51.2,54.2,46.2,54.6 M46.2,53.2v0.2c3.9-0.2,8.1-2.1,11.6-0.8h0.2v-0.3h-0.2C53.6,51,51.2,52.8,46.2,53.2
		 M46.2,51.7v0.2c3.9-0.2,8.1-2.1,11.6-0.8h0.2v-0.3h-0.2C53.6,49.5,51.2,51.3,46.2,51.7 M46.2,50.2v0.2c3.9-0.2,8.1-2.1,11.6-0.8
		h0.2v-0.3h-0.2C53.6,48,51.2,49.8,46.2,50.2 M46.2,48.7V49c3.9-0.2,8.1-2.1,11.6-0.8h0.2v-0.3h-0.2C53.6,46.6,51.2,48.4,46.2,48.7
		 M46.2,47.3v0.2c3.9-0.2,8.1-2.1,11.6-0.8h0.2v-0.3l-0.2,0C53.6,45.1,51.2,46.9,46.2,47.3 M46.2,45.8V46c3.9-0.2,8.1-2.1,11.6-0.8
		h0.2v-0.3h-0.2C53.6,43.6,51.2,45.4,46.2,45.8 M46.2,44.4v0.2c3.9-0.2,8.1-2.1,11.6-0.8h0.2v-0.3h-0.2C53.6,42.2,51.2,44,46.2,44.4
		 M57.9,42c-4.3-1.3-6.7,0.5-11.7,0.9v0.2c3.9-0.3,8.1-2.1,11.6-0.8h0.2V42H57.9z M44.7,40.9c4.7-0.3,9.8-2.7,13.9-1H60
		c4.8-1.5,9.3,0.3,14.1,0.9l0,12.8l0,11.1c-4.8-0.4-9.3-2.5-14.2-1h-1.2c-4.2-1.7-9.3,1-14,1V53.7V40.9z M44.7,40.1h-1v0.9v12.7v12
		c5,0,10.5-2.8,14.9-1H60c5.1-1.6,9.9,0.6,15.1,1v-12V40.9v-0.9h-1h0c-4.8-0.4-9.3-2.5-14.2-1l-1.2,0C54.5,37.4,49.4,40.1,44.7,40.1
		z M72,34.1L72,34.1L72,34.1L72,34.1z M72.1,34.1L72.1,34.1L72.1,34.1L72.1,34.1L72.1,34.1L72.1,34.1L72.1,34.1L72.1,34.1L72.1,34.1
		L72.1,34.1L72.1,34.1z M72,32.9L72,32.9l-0.3,0.9h0l-0.9,0l0.7,0.5l-0.3,0.9v0l0.7-0.5l0.7,0.5l0,0l-0.3-0.9l0.7-0.5l-0.9,0
		L72,32.9z M66.2,34.1L66.2,34.1L66.2,34.1L66.2,34.1L66.2,34.1z M66.2,34.1L66.2,34.1L66.2,34.1L66.2,34.1z M65,33.7l0.7,0.5
		l-0.3,0.9v0l0.7-0.5l0.7,0.5l0,0l-0.3-0.9h0l0.7-0.5l-0.9,0l-0.3-0.9l0,0l-0.3,0.9L65,33.7z M53.5,34.1L53.5,34.1L53.5,34.1
		L53.5,34.1L53.5,34.1z M53.5,34.1L53.5,34.1L53.5,34.1L53.5,34.1L53.5,34.1L53.5,34.1L53.5,34.1L53.5,34.1L53.5,34.1L53.5,34.1
		L53.5,34.1L53.5,34.1L53.5,34.1z M52.3,33.7l0.7,0.5l-0.3,0.9l0,0l0.7-0.5l0.7,0.5l0,0l-0.3-0.9h0l0.7-0.5l-0.9,0l-0.3-0.9l0,0
		l-0.3,0.9L52.3,33.7L52.3,33.7z M47.8,34.1L47.8,34.1L47.8,34.1L47.8,34.1z M47.8,34.1L47.8,34.1L47.8,34.1L47.8,34.1L47.8,34.1
		L47.8,34.1z M47.8,34.1L47.8,34.1L47.8,34.1L47.8,34.1L47.8,34.1L47.8,34.1L47.8,34.1L47.8,34.1L47.8,34.1L47.8,34.1L47.8,34.1z
		 M46.6,33.7l0.7,0.5l-0.3,0.9v0l0.7-0.5l0.7,0.5l0,0l-0.3-0.9l0.7-0.5l-0.9,0l-0.3-0.9v0l-0.3,0.9h0L46.6,33.7z M47,29.2l-0.4,0.3
		c0.3,0.5,0.2,1-0.3,1.4c-0.7,0.5-1.3,0.1-1.8-0.6c-0.4-0.6-0.5-1.4,0.2-1.8c0.4-0.3,0.9-0.3,1.2,0.1l0.4-0.3
		c-0.5-0.6-1.2-0.5-1.8-0.1c-0.9,0.6-0.9,1.6-0.4,2.4c0.6,0.8,1.4,1.2,2.3,0.6C47.2,30.7,47.4,30,47,29.2 M49.6,29
		c-0.8,0.3-1.4-0.2-1.7-0.8c-0.3-0.6-0.3-1.4,0.5-1.8c0.8-0.3,1.4,0.2,1.7,0.8C50.4,27.9,50.4,28.7,49.6,29 M50.5,27
		c-0.4-0.9-1.2-1.4-2.2-1c-1,0.4-1.1,1.5-0.8,2.3c0.4,0.9,1.2,1.4,2.2,1C50.8,28.9,50.9,27.9,50.5,27 M52,28.4l2.2-0.6l-0.1-0.4
		l-1.8,0.5l-0.8-2.9l-0.4,0.1L52,28.4z M54.9,27.6l2.3-0.3l-0.1-0.4l-1.8,0.3l-0.5-3l-0.5,0.1L54.9,27.6z M57.9,27.2l2.4,0l0-0.4
		l-1.9,0l0-1.2l1.8,0l0-0.4l-1.8,0l0-1.1l1.9,0l0-0.4l-2.4,0L57.9,27.2z M59.9,34.1L59.9,34.1L59.9,34.1L59.9,34.1L59.9,34.1
		L59.9,34.1L59.9,34.1L59.9,34.1L59.9,34.1z M59.9,34.1L59.9,34.1L59.9,34.1L59.9,34.1z M59.8,34.1L59.8,34.1L59.8,34.1L59.8,34.1z
		 M59.8,34.1L59.8,34.1L59.8,34.1L59.8,34.1z M62.1,33.4l-1.7,0v0l-0.6-1.6l0,0l-0.5,1.6h0l-1.7,0l1.4,1l-0.5,1.7l0,0l1.4-1l1.4,1
		l0,0l-0.6-1.6l0,0L62.1,33.4z M63.9,25.2l0.5,0.1c0-0.8-0.6-1.2-1.3-1.3c-1.1-0.1-1.7,0.6-1.9,1.6c-0.1,0.9,0.4,1.8,1.4,1.9
		c0.4,0.1,0.9,0,1.2-0.4l0.1,0.4l0.3,0l0.2-1.8l-1.5-0.2L62.8,26l1.1,0.1c-0.1,0.6-0.5,1.1-1.2,1c-0.8-0.1-1.1-0.8-1-1.5
		c0.1-0.7,0.5-1.4,1.4-1.3C63.5,24.4,63.9,24.7,63.9,25.2 M68.1,25.6l0.1-0.4l-2.3-0.7l-1,3.3l2.3,0.7l0.1-0.4l-1.9-0.5l0.3-1.1
		l1.7,0.5l0.1-0.4L66,26.1l0.3-1L68.1,25.6z M72.8,29.2c-0.3,0.6-1,1.1-1.7,0.7c-0.7-0.4-0.7-1.2-0.4-1.8c0.3-0.6,1-1.1,1.7-0.7
		C73.2,27.8,73.1,28.6,72.8,29.2 M73.2,29.5c0.5-0.8,0.4-1.8-0.6-2.4c-1-0.5-1.9,0-2.3,0.8c-0.5,0.8-0.4,1.8,0.6,2.4
		C71.8,30.8,72.7,30.3,73.2,29.5 M76.7,30.4l0.2-0.3l-1.8-1.4L73,31.5l0.4,0.3l1-1.2l1.3,1l0.2-0.3l-1.3-1l0.7-0.9L76.7,30.4z
		 M80.6,34.4l0.3-0.3L79,32.1l-0.3,0.3l0.8,0.9l-2.3,2l0.3,0.3l2.3-2L80.6,34.4z M82.5,37.3l0.3-0.2l-1.3-2L78.6,37l1.3,2l0.3-0.2
		l-1.1-1.6l1-0.7l1,1.5l0.3-0.2l-1-1.5l0.9-0.6L82.5,37.3z M84.2,39.5c-0.4-1-1.4-1.1-2.3-0.7c-0.9,0.4-1.4,1.2-1,2.2
		c0.4,0.8,1.1,1.1,1.9,0.8l-0.2-0.4c-0.5,0.2-1.1,0.1-1.3-0.5c-0.3-0.7,0.1-1.3,0.8-1.7c0.7-0.3,1.4-0.3,1.8,0.5
		c0.2,0.4,0.1,0.9-0.3,1.2l0.2,0.4C84.4,40.9,84.5,40.2,84.2,39.5 M82.6,45.7l3.3-0.9l-0.1-0.4l-1.4,0.4L83.9,43l1.4-0.4l-0.1-0.4
		l-3.3,0.9l0.1,0.4l1.5-0.4l0.5,1.7l-1.5,0.4L82.6,45.7z M83.1,49.5l3.4-0.4l-0.1-0.4l-2.8,0.3l0,0l2.6-2.1l-0.1-0.5l-3.4,0.4
		l0.1,0.4l2.7-0.3v0L83.1,49L83.1,49.5z M86.2,52c0,0.8-0.8,1.2-1.5,1.1c-0.7,0-1.4-0.4-1.4-1.2c0-0.8,0.8-1.2,1.5-1.1
		C85.6,50.8,86.3,51.2,86.2,52 M86.6,52c0-1.1-0.8-1.7-1.7-1.7c-0.9,0-1.8,0.5-1.9,1.6c0,1.1,0.8,1.7,1.7,1.7
		C85.7,53.7,86.6,53.1,86.6,52 M83.2,54.9l3,0.6l0.1-0.5l-3.4-0.6l-0.4,2.2l0.4,0.1L83.2,54.9z M83.1,60.3c-0.7-0.2-1.2-0.8-0.9-1.6
		c0.3-0.8,1.1-0.9,1.7-0.7c0.7,0.2,1.2,0.8,0.9,1.6C84.5,60.5,83.7,60.6,83.1,60.3 M82.9,60.8c0.9,0.3,1.9,0.1,2.2-1
		c0.4-1-0.3-1.8-1.2-2.1c-0.9-0.3-1.9-0.1-2.2,1C81.4,59.7,82,60.5,82.9,60.8 M81.6,64.7c0.8,0.3,1.3-0.1,1.7-0.8
		c0.5-1,0-1.9-0.9-2.3c-0.8-0.4-1.8-0.3-2.3,0.6c-0.2,0.4-0.3,0.8-0.1,1.2l-0.4-0.1l-0.1,0.3l1.6,0.9l0.7-1.3l-0.3-0.2l-0.5,1
		c-0.6-0.3-0.8-0.9-0.5-1.5c0.4-0.7,1.1-0.7,1.8-0.4c0.6,0.4,1.1,1,0.7,1.7c-0.2,0.4-0.7,0.7-1.2,0.5L81.6,64.7z M79.7,66.4l1.9,0.2
		l0.3-0.4L79.5,66l-1.1-0.9l-0.3,0.4l1.1,0.9l0.8,2.3l0.3-0.4L79.7,66.4z M89.2,50.9c0,8.2-3.3,15.6-8.7,21
		c-5.4,5.4-12.8,8.7-21,8.7s-15.6-3.3-21-8.7c-5.4-5.4-8.7-12.8-8.7-21c0-8.2,3.3-15.6,8.7-21c5.4-5.4,12.8-8.7,21-8.7
		s15.6,3.3,21,8.7C85.8,35.3,89.2,42.7,89.2,50.9 M81.7,73.1c5.7-5.7,9.2-13.5,9.2-22.2s-3.5-16.5-9.2-22.2
		C76,23,68.1,19.4,59.4,19.4c-8.7,0-16.5,3.5-22.2,9.2C31.5,34.3,28,42.2,28,50.9s3.5,16.5,9.2,22.2c5.7,5.7,13.5,9.2,22.2,9.2
		C68.1,82.3,76,78.8,81.7,73.1 M101,46.8l-0.9,0.7c-0.9,0.7-1.5,1.9-2.1,3.3c-0.9,1.9-1.9,4.2-4.2,5.1c1.9,1.6,2.3,4.2,2.6,6.3
		c0.2,1.4,0.4,2.8,1,3.5l0.6,0.7c-0.1,0.2-0.1,0.4-0.2,0.5L96.9,67c-1.1,0.2-2.2,1-3.4,1.9c-1.6,1.2-3.4,2.6-5.6,2.6
		c-0.2,0-0.4,0-0.6,0c1,2.3,0.1,4.8-0.6,6.8c-0.5,1.4-0.9,2.7-0.8,3.6l0.1,0.7c-0.2,0.2-0.4,0.3-0.6,0.5l-0.6-0.2
		c-0.9-0.3-2.4-0.1-3.9,0.1c-1,0.2-2.1,0.3-3.1,0.3c-1.3,0-2.4-0.3-3.4-0.9c0.1,2.8-1.8,5-3.3,6.7c-0.5,0.6-1,1.2-1.4,1.8l-0.1,0.1
		c-0.3,0.1-0.6,0.2-1,0.2l-0.1,0c-0.7-0.4-1.6-0.7-2.5-1c-2.1-0.7-4.7-1.6-5.9-4c-1.2,1.8-3.4,2.5-5.2,3.2c-1.4,0.5-2.7,1-3.5,1.8
		l-0.4,0.4c-0.3-0.1-0.6-0.1-0.9-0.2l-0.2-0.6c-0.3-0.9-1.3-1.8-2.3-2.8c-1.5-1.4-3.5-3.2-3.7-5.6c-0.9,0.6-2.1,0.9-3.4,0.9
		c-1,0-2.1-0.2-3.1-0.3c-1.5-0.2-3-0.4-3.9-0.1L33.3,83c-0.2-0.2-0.4-0.3-0.6-0.5l0.1-0.7c0.2-0.9-0.3-2.2-0.8-3.6
		c-0.7-2-1.6-4.5-0.6-6.8c-2.3,0.3-4.4-1.2-6.1-2.5C24.2,68,23,67.1,21.9,67L21,66.8c-0.1-0.2-0.1-0.3-0.2-0.5l0.6-0.7
		c0.6-0.7,0.8-2.1,1-3.5c0.3-2.1,0.7-4.7,2.6-6.3c-2.2-0.9-3.3-3.2-4.2-5.1c-0.6-1.4-1.2-2.6-2.1-3.3l-0.9-0.7c0-0.1,0-0.2,0-0.4
		l1-0.4c0.9-0.3,1.7-1.5,2.5-2.6c1.3-1.7,2.8-3.9,5.3-4.3c-1.5-1.9-1.4-4.4-1.3-6.5c0.1-1.5,0.2-2.9-0.3-3.9l-0.5-1.2
		c0,0,0.1-0.1,0.1-0.1l1.3,0.1c0.9,0.1,2.2-0.5,3.5-1.1c1.5-0.7,3.2-1.5,5-1.5c0.6,0,1.1,0.1,1.6,0.2c-0.5-2.4,0.8-4.5,1.9-6.3
		c0.8-1.3,1.5-2.5,1.6-3.6l0.1-1.5c0,0,0,0,0,0l1.2,0.8c0.8,0.5,2.1,0.6,3.6,0.7c2.1,0.1,4.7,0.2,6.5,2c0.7-2.4,3-3.8,4.8-4.8
		c1.3-0.7,2.4-1.4,2.9-2.2l0.7-1.3l0.8,1.3c0.6,0.9,1.8,1.7,3,2.4c1.8,1.1,3.9,2.4,4.6,4.7c1.7-1.7,4.3-1.9,6.5-2
		c1.4-0.1,2.8-0.1,3.6-0.7l1.2-0.8l0.1,1.5c0.1,1.1,0.8,2.3,1.6,3.6c1.1,1.8,2.4,4,1.9,6.3c0.5-0.2,1.1-0.2,1.6-0.2
		c1.8,0,3.5,0.8,5,1.5c1.3,0.6,2.5,1.2,3.5,1.1l1.4-0.1c0,0,0,0.1,0.1,0.1l-0.6,1.2c-0.5,1-0.4,2.4-0.3,3.9c0.1,2.1,0.3,4.7-1.3,6.5
		c2.5,0.4,4,2.6,5.3,4.3c0.9,1.2,1.7,2.3,2.5,2.6l1,0.4C101,46.5,101,46.6,101,46.8 M101.2,48l1.2-0.9l-0.1-1.3l-1.5-0.6
		c-0.7-0.3-1.5-1.4-2.2-2.4c-1.2-1.6-2.6-3.5-4.8-4.4c1.1-2,0.9-4.3,0.8-6.2c-0.1-1.4-0.2-2.8,0.2-3.6l0.6-1.3l0.2-0.4l-0.6-0.8
		l-1.8,0.2c-0.8,0.1-1.8-0.5-3-1l-0.1-0.1c-1.6-0.8-3.4-1.6-5.4-1.6c-0.3,0-0.5,0-0.8,0c0-2.2-1.2-4.2-2.2-5.8
		c-0.7-1.2-1.4-2.4-1.5-3.3l-0.1-2.1c-0.3-0.1-0.5-0.2-0.8-0.3l-1.7,1.1c-0.6,0.4-1.9,0.5-3.2,0.5c-2,0.1-4.3,0.2-6.2,1.5
		c-1-1.9-3-3.1-4.6-4.1c-1.2-0.7-2.3-1.4-2.8-2.2l-1.1-1.9c-0.1,0-0.1,0-0.2,0c-0.2,0-0.3,0-0.5,0l-1.1,2c-0.3,0.6-1.5,1.3-2.6,2
		c-1.6,0.9-3.7,2.2-4.8,4.3c-1.9-1.3-4.4-1.5-6.2-1.6c-1.3-0.1-2.6-0.1-3.2-0.5l-1.7-1.1l-0.8,0.5l-0.1,1.9
		c-0.1,0.9-0.8,2.1-1.5,3.3c-1,1.6-2.2,3.6-2.2,5.8c-0.2,0-0.5,0-0.7,0c-2,0-3.8,0.9-5.4,1.6l-0.1,0c-1.1,0.5-2.1,1-2.9,1
		c-0.1,0-0.1,0-0.1,0l-1.8-0.2L23.3,27l0.7,1.6c0.4,0.8,0.3,2.2,0.2,3.6c-0.1,1.9-0.2,4.2,0.8,6.2c-2.2,0.8-3.6,2.8-4.8,4.4
		c-0.8,1-1.6,2.1-2.2,2.4l-1.5,0.6L16.5,47l1.2,0.9c0.7,0.6,1.3,1.8,1.9,3.1c0.8,1.7,1.8,3.8,3.6,5.1c-1.5,1.8-1.8,4.2-2.1,6.1
		c-0.2,1.3-0.4,2.6-0.8,3.2l-0.9,1.1l0.2,0.4c0.1,0.2,0.1,0.3,0.2,0.5l0.2,0.4l1.3,0.2c0.9,0.1,2,0.9,3.1,1.8
		c1.4,1.1,3.4,2.5,5.6,2.7c-0.5,2.3,0.3,4.6,0.9,6.4c0.4,1.2,0.9,2.5,0.7,3.2l-0.2,1.2l0.4,0.3c0.2,0.2,0.4,0.3,0.6,0.5l0.3,0.3
		l1.1-0.4c0.7-0.2,2.3-0.1,3.6,0.1c1,0.2,2.1,0.3,3.2,0.3c1.1,0,2-0.2,2.9-0.5c0.6,2.2,2.4,3.9,3.8,5.1c1,0.9,1.9,1.8,2.2,2.5l0.3,1
		l0.5,0.1c0.3,0.1,0.6,0.1,0.9,0.2l0.4,0.1l0.7-0.7c0.6-0.7,1.9-1.1,3.2-1.6c1.6-0.5,3.5-1.2,4.9-2.6c1.5,2,3.8,2.8,5.8,3.5l0.1,0
		c0.9,0.3,1.7,0.6,2.3,0.9l0.3,0.2l0.3-0.1c0.3-0.1,0.7-0.2,1-0.2l0.3-0.1l0.2-0.3c0.3-0.5,0.8-1,1.3-1.6l0.1-0.1
		c1.3-1.5,3.1-3.5,3.4-6.1c0.8,0.3,1.7,0.4,2.7,0.4c1.1,0,2.2-0.2,3.3-0.3c1.4-0.2,2.9-0.4,3.6-0.1l1,0.3l0.3-0.3
		c0.2-0.2,0.4-0.4,0.7-0.5l0.4-0.3l-0.2-1.1c-0.1-0.7,0.3-2,0.7-3.2c0.6-1.8,1.5-4.1,1-6.4c2.2-0.2,4-1.5,5.6-2.7
		c1.1-0.8,2.2-1.6,3.1-1.8l1.3-0.2l0.2-0.4c0.1-0.2,0.2-0.4,0.2-0.6l0.2-0.4l-0.9-1.1c-0.5-0.6-0.6-1.9-0.8-3.2
		c-0.3-1.8-0.6-4.3-2.1-6.1c1.9-1.2,2.8-3.3,3.6-5.1C99.9,49.8,100.5,48.6,101.2,48 M111.4,54.9c0,2.8,1.7,5.4,6.2,5.4
		c0.7,0,5-0.1,5.6-4.2h-2.7c-0.6,1.4-1.1,2.2-3.1,2.2c-2.3,0-3.2-1.6-3.2-3.4c0-1.7,1.1-3.4,3.5-3.4c1.5,0,2.6,0.9,2.8,1.9h2.7
		c-0.5-3.4-4-3.9-5.5-3.9C113.8,49.5,111.4,51.6,111.4,54.9 M132.7,41.9l-9.1-11l8.4-7.4h-6.7l-8.5,7.9v-7.9h-5v18.3h5v-5.4l2.9-2.5
		l6.2,7.9H132.7z M155,35.3V23.6h-5v10.5c0,1.8-0.1,4.8-4.6,4.8s-4.6-3-4.6-4.8V23.6h-5v11.8c0,2.1,0.3,7.1,9.6,7.1
		C154.7,42.4,155,37.4,155,35.3 M159.8,53.9h-6.8c0.4-2.1,2.1-2.6,3.4-2.6C157.7,51.3,159.5,51.9,159.8,53.9 M156.4,49.5
		c-3.6,0-6.1,2.1-6.1,5.5c0,2.7,1.7,5.3,6.2,5.3c3.8,0,5.2-2.2,5.8-3.3h-2.9c-0.5,0.8-1.3,1.4-3,1.4c-2.6,0-3.4-1.7-3.4-2.9h9.5
		v-0.4C162.6,52.2,160.9,49.5,156.4,49.5 M180.7,41.9h4.8V23.6h-7.3l-5.4,13.2l-5.4-13.2H160v18.3h4.8V27.2h0.1l5.8,14.7h4.2
		l5.8-14.7h0.1V41.9z M202.6,34.8h-5.7l2.9-7.3L202.6,34.8z M205.5,41.9h5.4l-8.1-18.3h-6l-8.1,18.3h5.4l1.5-3.8h8.4L205.5,41.9z
		 M210.4,54.9c0,1.7-0.9,3.4-3.5,3.4s-3.5-1.6-3.5-3.4c0-1.7,0.9-3.4,3.5-3.4S210.4,53.1,210.4,54.9 M213.1,54.9
		c0-2.8-1.7-5.4-6.2-5.4c-4.5,0-6.2,2.6-6.2,5.4c0,2.8,1.7,5.4,6.2,5.4C211.4,60.3,213.1,57.7,213.1,54.9 M213.7,73.5
		c0,1.7,1.1,3.4,3.9,3.4c0.4,0,3.1,0,3.5-2.6h-1.7c-0.3,0.9-0.7,1.4-2,1.4c-1.4,0-2-1-2-2.1c0-1.1,0.7-2.1,2.2-2.1
		c0.9,0,1.6,0.5,1.7,1.2h1.7c-0.3-2.1-2.5-2.4-3.5-2.4C215.2,70.2,213.7,71.5,213.7,73.5 M227.9,29.4c0,1.7-1.3,2.3-2.4,2.3H219
		v-4.6h6.3C226.5,27.1,227.9,27.5,227.9,29.4 M230.2,33L230.2,33c2.1-0.8,3-2.2,3-4.5c0-1.9-0.8-5-5.9-5H214v18.3h5v-6.7h6.2
		c1.5,0,2.6,0.6,2.6,3.2c0,1.9,0,2.7,0.5,3.5h5.4c-0.9-0.9-1-3.1-1-4C232.8,36.1,232.4,33.4,230.2,33 M249.4,34.8h-5.7l2.9-7.3
		L249.4,34.8z M252.3,41.9h5.4l-8.1-18.3h-6l-8.1,18.3h5.4l1.5-3.8h8.4L252.3,41.9z M258.6,49.5c-3.9,0-6.2,2.2-6.2,5.4
		c0,2.8,1.7,5.4,6.2,5.4c0.7,0,5-0.1,5.6-4.2h-2.7c-0.5,1.4-1.1,2.2-3.1,2.2c-2.3,0-3.2-1.6-3.2-3.4c0-1.7,1.1-3.4,3.5-3.4
		c1.5,0,2.6,0.9,2.8,1.9h2.7C263.6,50,260.2,49.5,258.6,49.5 M279.2,41.9h2.5V31.7h-9.3v3.2h4.4c-0.6,3-2.7,4.1-5.4,4.1
		c-4.5,0-6.1-3.3-6.1-6.2c0-2.8,1.6-6.2,6.1-6.2c1.8,0,3.9,0.7,4.7,3h5.5c-0.9-5-5.7-6.5-10.8-6.5c-6.9,0-10.8,4-10.8,9.7
		c0,6.8,4.2,9.7,10.8,9.7c3.2,0,6-0.8,7.7-2.6L279.2,41.9z M286.6,49.6c-1.8,0-3.1,0.7-4,1.8h0v-1.5H280v10.1h2.6v-5.4
		c0-2.1,1.8-2.9,3.1-2.9c2.2,0,2.5,1.2,2.5,2.3v6h2.6v-6.8C290.9,50.4,288.8,49.6,286.6,49.6 M305.8,35.3V23.6h-5v10.5
		c0,1.8-0.1,4.8-4.6,4.8c-4.6,0-4.6-3-4.6-4.8V23.6h-5v11.8c0,2.1,0.3,7.1,9.6,7.1C305.5,42.4,305.8,37.4,305.8,35.3 M308,59.9h2.6
		V46.1H308V59.9z M324.8,29.4c0,1.7-1.3,2.3-2.4,2.3h-6.6v-4.6h6.3C323.4,27.1,324.8,27.5,324.8,29.4 M327.1,33L327.1,33
		c2.1-0.8,3-2.2,3-4.5c0-1.9-0.8-5-5.9-5h-13.3v18.3h5v-6.7h6.2c1.5,0,2.6,0.6,2.6,3.2c0,1.9,0,2.7,0.5,3.5h5.4
		c-0.9-0.9-0.9-3.1-0.9-4C329.6,36.1,329.3,33.4,327.1,33 M336.9,54.6c0,1.9-1.4,3.2-3.4,3.2c-2.8,0-3.6-1.6-3.6-3.1
		c0-1.8,1.5-3.1,3.4-3.1C334.6,51.6,336.9,52.2,336.9,54.6 M332.7,49.6c-3.9,0-5.6,2.5-5.6,5.1c0,3.7,2.9,5.1,5.6,5.1
		c1.5,0,2.8-0.4,4.1-1.6h0.1v1.2c0,1.3-0.4,2.9-3.4,2.9c-1.6,0-2.8-0.2-3.1-1.5h-2.7c0.2,2.6,2.8,3.3,5.9,3.3c4.4,0,6-2.1,6-4.5
		v-9.8h-2.6v1.5h0C336.3,50.2,334.8,49.6,332.7,49.6 M353.5,35.3V23.6h-5v10.5c0,1.8-0.1,4.8-4.6,4.8c-4.6,0-4.6-3-4.6-4.8V23.6h-5
		v11.8c0,2.1,0.3,7.1,9.6,7.1C353.3,42.4,353.5,37.4,353.5,35.3"/>
</g>
</svg>
